<?xml version="1.0" encoding="UTF-8"?>
<svg width="24" height="24" viewBox="0 0 24 24" fill="none" xmlns="http://www.w3.org/2000/svg">
  <path d="M3 3H5L5.4 5M7 13H17L21 5H5.4M7 13L5.4 5M7 13L4.7 16M17 13L19.3 16M5 21C5 19.8954 5.89543 19 7 19C8.10457 19 9 19.8954 9 21M5 21C5 22.1046 5.89543 23 7 23C8.10457 23 9 22.1046 9 21M5 21H9M17 21C17 19.8954 17.8954 19 19 19C20.1046 19 21 19.8954 21 21M17 21C17 22.1046 17.8954 23 19 23C20.1046 23 21 22.1046 21 21M17 21H21" stroke="currentColor" stroke-width="2" stroke-linecap="round" stroke-linejoin="round"/>
</svg> 